<svg xmlns="http://www.w3.org/2000/svg" viewBox="0 0 64 64"><title>24-coconut water</title><g id="_24-coconut_water" data-name="24-coconut water"><path d="M16.85,7.31a2.884,2.884,0,0,1,1.05.85l1.65,3.06-3.47,1.74-.78-1.58a1,1,0,0,0-.79-.38H13V7h2.53A2.979,2.979,0,0,1,16.85,7.31Z" style="fill:#ff8488"/><polygon points="19.55 11.22 27 25 22 25 16.08 12.96 19.55 11.22" style="fill:#ffab7d"/><rect x="5" y="7" width="8" height="4" style="fill:#ffab7d"/><path d="M57.72,4.11a12.083,12.083,0,0,1,.66,9.23L57.83,15l-2.85-2.85,2.13-9.26Z" style="fill:#ff942c"/><path d="M38.58,23.66a4.81,4.81,0,0,0-.45,1.36L38,25,25,20l3.3-3.85a6,6,0,0,1,6.6-1.73L38,15.55l.12.02a2,2,0,0,0-.04.24,4.713,4.713,0,0,0,.5,2.53,4.687,4.687,0,0,0-2.14,1.44,1.9,1.9,0,0,0,0,2.44A4.687,4.687,0,0,0,38.58,23.66Z" style="fill:#f2cfa9"/><path d="M48.79,28,52,33l-5,2-7-3-7,3-7-3-7,3-5-2,4.54-7.08A2.024,2.024,0,0,1,20.23,25H38l.13.02a4.759,4.759,0,0,0-.05,1.17,1.938,1.938,0,0,0,1.73,1.73,4.713,4.713,0,0,0,2.53-.5,4.687,4.687,0,0,0,1.44,2.14,1.9,1.9,0,0,0,2.44,0,4.687,4.687,0,0,0,1.44-2.14,5.872,5.872,0,0,0,1.16.42Z" style="fill:#f2cfa9"/><path d="M52,33V44a19,19,0,0,1-38,0V33l5,2,7-3,7,3,7-3,7,3Z" style="fill:#49c263"/><path d="M41,14.13a5.285,5.285,0,0,1,1.34.45,4.686,4.686,0,0,1,1.439-2.14,1.911,1.911,0,0,1,2.44,0,4.686,4.686,0,0,1,1.439,2.14,4.713,4.713,0,0,1,2.53-.5,1.938,1.938,0,0,1,1.729,1.73,4.713,4.713,0,0,1-.5,2.53,4.687,4.687,0,0,1,2.14,1.44,1.906,1.906,0,0,1,0,2.44,4.687,4.687,0,0,1-2.14,1.44,4.713,4.713,0,0,1,.5,2.53,1.938,1.938,0,0,1-1.729,1.73,4.713,4.713,0,0,1-2.53-.5,4.686,4.686,0,0,1-1.439,2.14,1.911,1.911,0,0,1-2.44,0,4.686,4.686,0,0,1-1.439-2.14,4.713,4.713,0,0,1-2.53.5,1.938,1.938,0,0,1-1.729-1.73c0-.06-.01-.13-.01-.19a4.691,4.691,0,0,1,.51-2.34,4.687,4.687,0,0,1-2.14-1.44,1.906,1.906,0,0,1,0-2.44,4.687,4.687,0,0,1,2.14-1.44,4.713,4.713,0,0,1-.5-2.53,1.938,1.938,0,0,1,1.729-1.73A4.92,4.92,0,0,1,41,14.13ZM48,21a3,3,0,1,0-3,3A3,3,0,0,0,48,21Z" style="fill:#ffa1c8"/><circle cx="45" cy="21" r="3" style="fill:#c6ff79"/><path d="M16.85,7.31A2.979,2.979,0,0,0,15.53,7H13v4h1.51a.987.987,0,0,1,.491.141l2.577-3.312A2.744,2.744,0,0,0,16.85,7.31Z" style="fill:#ff8488"/><path d="M17.9,8.16a3.146,3.146,0,0,0-.322-.331L15,11.141a.975.975,0,0,1,.3.239l.78,1.58,3.47-1.74Z" style="fill:#fe7b83"/><path d="M38.13,25.02c0-.02.012-.042.015-.061.018-.1.048-.2.073-.3s.051-.223.09-.341.106-.265.164-.4c.038-.088.063-.173.108-.263a4.687,4.687,0,0,1-2.14-1.44,1.9,1.9,0,0,1,0-2.44,4.687,4.687,0,0,1,2.14-1.44,4.713,4.713,0,0,1-.5-2.53,2,2,0,0,1,.04-.24L38,15.55l-1.766-.644a4.034,4.034,0,0,0-.144.727,6.485,6.485,0,0,0,.073,1.71,6.314,6.314,0,0,0-1.25,1.149,3.878,3.878,0,0,0-.013,5,6.268,6.268,0,0,0,.47.5L38,25Z" style="fill:#e9b789"/><path d="M48.82,27.84c-.115-.029-.238-.07-.359-.108-.047-.014-.093-.026-.141-.042a5.816,5.816,0,0,1-.619-.253c-.014-.007-.027-.01-.041-.017a4.687,4.687,0,0,1-1.44,2.14l0,0a1.848,1.848,0,0,1-1.19.436h-.053a1.849,1.849,0,0,1-1.194-.438h0a4.687,4.687,0,0,1-1.44-2.14,4.708,4.708,0,0,1-2.529.5h0a1.938,1.938,0,0,1-1.73-1.73c0-.019,0-.042,0-.061,0-.044-.007-.088-.007-.129s0-.081,0-.119c0-.108,0-.214,0-.329.005-.092.018-.188.029-.284s.011-.162.025-.248L38,25H36.119a5.921,5.921,0,0,0-.047,1,1.39,1.39,0,0,0,.01.19l.01.2a3.943,3.943,0,0,0,3.542,3.525,6.478,6.478,0,0,0,1.706-.076,6.236,6.236,0,0,0,1.136,1.24,3.909,3.909,0,0,0,5.018.025,6.44,6.44,0,0,0,1.165-1.266,6.617,6.617,0,0,0,1.363.084L48.79,28Z" style="fill:#e9b789"/><circle cx="45" cy="21" r="3" style="fill:none"/><path d="M55.89,2.28a12.074,12.074,0,0,0-9.23-.66L45,2.169,47.85,5.02l9.26-2.13Z" style="fill:#ffb844"/><polygon points="47.85 5.02 50.832 8.009 51.41 8.59 51.42 8.59 52 8 52.5 7.5 57.11 2.89 47.85 5.02" style="fill:#ff942c"/><polygon points="52.5 7.5 52 8 51.42 8.59 51.992 9.161 54.98 12.15 57.11 2.89 52.5 7.5" style="fill:#ffb844"/><path d="M24.236,23a2,2,0,0,1-1.789-1.106L17.6,12.2l-1.519.762L22,25h5l-1.081-2Z" style="fill:#fb9881"/><rect x="5" y="9" width="8" height="2" style="fill:#fb9881"/><path d="M16.192,9.61A2,2,0,0,0,14.764,9H13v2h1.51a.917.917,0,0,1,.349.079,1,1,0,0,1,.142.062h0Z" style="fill:#ff598c"/><path d="M16.553,10.106a1.969,1.969,0,0,0-.361-.5L15,11.141a.975.975,0,0,1,.3.239l.78,1.58L17.6,12.2Z" style="fill:#f05a7f"/><path d="M19,35l3.345-9.129A1.446,1.446,0,0,1,23.591,25H20.229a2.024,2.024,0,0,0-1.69.92L14,33l5,2Z" style="fill:#ffe0d1"/><path d="M47,35l5-2-3.21-5,.03-.16a5.872,5.872,0,0,1-1.16-.42,4.687,4.687,0,0,1-1.44,2.14,1.869,1.869,0,0,1-1.061.415L47,35Z" style="fill:#ffe0d1"/><path d="M47,35v8a20.776,20.776,0,0,1-4.1,12.723A12.62,12.62,0,0,1,33,61h0a12.62,12.62,0,0,1-9.9-5.277A20.776,20.776,0,0,1,19,43V35h0l-5-2V44a19,19,0,0,0,38,0V33Z" style="fill:#75e66c"/><path d="M41,14.13a5.285,5.285,0,0,1,1.34.45,4.686,4.686,0,0,1,1.439-2.14,1.911,1.911,0,0,1,2.44,0,4.686,4.686,0,0,1,1.439,2.14,4.713,4.713,0,0,1,2.53-.5,1.938,1.938,0,0,1,1.729,1.73,4.713,4.713,0,0,1-.5,2.53,4.687,4.687,0,0,1,2.14,1.44,1.906,1.906,0,0,1,0,2.44,4.687,4.687,0,0,1-2.14,1.44,4.713,4.713,0,0,1,.5,2.53,1.938,1.938,0,0,1-1.729,1.73,4.713,4.713,0,0,1-2.53-.5,4.686,4.686,0,0,1-1.439,2.14,1.911,1.911,0,0,1-2.44,0,4.686,4.686,0,0,1-1.439-2.14,4.713,4.713,0,0,1-2.53.5,1.938,1.938,0,0,1-1.729-1.73c0-.06-.01-.13-.01-.19a4.691,4.691,0,0,1,.51-2.34,4.687,4.687,0,0,1-2.14-1.44,1.906,1.906,0,0,1,0-2.44,4.687,4.687,0,0,1,2.14-1.44,4.713,4.713,0,0,1-.5-2.53,1.938,1.938,0,0,1,1.729-1.73A4.92,4.92,0,0,1,41,14.13ZM48,21a3,3,0,1,0-3,3A3,3,0,0,0,48,21Z" style="fill:#ffa1c8"/><circle cx="45" cy="21" r="3" style="fill:#bdf474"/><path d="M44.966,18c.012,0,.022,0,.034,0s.022,0,.034,0a4.71,4.71,0,0,1,1.38-2.66,5.059,5.059,0,0,1,1.2-.88,4.7,4.7,0,0,0-1.39-2.023,1.815,1.815,0,0,0-.854-.4,1.879,1.879,0,0,0-.732,0,1.815,1.815,0,0,0-.854.4,4.7,4.7,0,0,0-1.39,2.023,5.059,5.059,0,0,1,1.2.88A4.71,4.71,0,0,1,44.966,18Z" style="fill:#ff73a5"/><path d="M45.034,24c-.012,0-.022,0-.034,0s-.022,0-.034,0a4.71,4.71,0,0,1-1.38,2.66,5.059,5.059,0,0,1-1.2.88,4.7,4.7,0,0,0,1.39,2.023,1.815,1.815,0,0,0,.854.4,1.878,1.878,0,0,0,.732,0,1.815,1.815,0,0,0,.854-.4,4.7,4.7,0,0,0,1.39-2.023,5.059,5.059,0,0,1-1.2-.88A4.71,4.71,0,0,1,45.034,24Z" style="fill:#ff73a5"/><path d="M48,20.966c0,.012,0,.022,0,.034s0,.022,0,.034a4.71,4.71,0,0,1,2.659,1.38,5.1,5.1,0,0,1,.88,1.2,4.678,4.678,0,0,0,2.023-1.39,1.886,1.886,0,0,0,.436-1.186c0-.011,0-.022,0-.034s0-.023,0-.035a1.886,1.886,0,0,0-.436-1.185,4.678,4.678,0,0,0-2.023-1.39,5.072,5.072,0,0,1-.88,1.2A4.71,4.71,0,0,1,48,20.966Z" style="fill:#ff73a5"/><path d="M42,21.034c0-.012,0-.022,0-.034s0-.022,0-.034a4.71,4.71,0,0,1-2.659-1.38,5.1,5.1,0,0,1-.88-1.2,4.678,4.678,0,0,0-2.023,1.39,1.886,1.886,0,0,0-.436,1.185c0,.012,0,.023,0,.035s0,.023,0,.034a1.886,1.886,0,0,0,.436,1.186,4.678,4.678,0,0,0,2.023,1.39,5.1,5.1,0,0,1,.88-1.2A4.71,4.71,0,0,1,42,21.034Z" style="fill:#ff73a5"/><path d="M48,21.034v0A2.991,2.991,0,0,1,45.037,24h0a4.71,4.71,0,0,0,1.38,2.66,5.059,5.059,0,0,0,1.2.88c.015-.041.035-.074.049-.117a4.713,4.713,0,0,0,2.53.5,1.92,1.92,0,0,0,.905-.336c.058-.043.114-.09.168-.138a1.954,1.954,0,0,0,.182-.182c.049-.055.095-.11.138-.168a1.924,1.924,0,0,0,.336-.906,4.713,4.713,0,0,0-.5-2.53c.043-.014.076-.034.117-.05a5.1,5.1,0,0,0-.88-1.2A4.71,4.71,0,0,0,48,21.034Z" style="fill:#ffa1c8"/><path d="M42,20.966v0A2.991,2.991,0,0,1,44.963,18h0a4.71,4.71,0,0,0-1.38-2.66,5.059,5.059,0,0,0-1.2-.88c-.015.041-.035.074-.049.117A5.285,5.285,0,0,0,41,14.13a4.92,4.92,0,0,0-1.19-.05,1.924,1.924,0,0,0-.905.336c-.059.044-.115.091-.17.14a2.005,2.005,0,0,0-.179.178c-.049.055-.1.112-.139.17a1.924,1.924,0,0,0-.336.906,4.713,4.713,0,0,0,.5,2.53c-.043.014-.076.034-.117.05a5.1,5.1,0,0,0,.88,1.2A4.71,4.71,0,0,0,42,20.966Z" style="fill:#ffa1c8"/><path d="M44.966,24h0A2.991,2.991,0,0,1,42,21.037v0a4.71,4.71,0,0,0-2.659,1.38,5.1,5.1,0,0,0-.88,1.2c.041.016.074.036.117.05a4.691,4.691,0,0,0-.51,2.34c0,.06.01.13.01.19a1.924,1.924,0,0,0,.336.906c.043.058.089.113.138.168a1.954,1.954,0,0,0,.182.182c.054.048.11.095.168.138a1.92,1.92,0,0,0,.905.336,4.713,4.713,0,0,0,2.53-.5c.014.043.034.076.049.117a5.059,5.059,0,0,0,1.2-.88A4.71,4.71,0,0,0,44.966,24Z" style="fill:#ffa1c8"/><path d="M45.034,18h0A2.991,2.991,0,0,1,48,20.963v0a4.71,4.71,0,0,0,2.659-1.38,5.072,5.072,0,0,0,.88-1.2c-.041-.016-.074-.036-.117-.05a4.713,4.713,0,0,0,.5-2.53,1.924,1.924,0,0,0-.336-.906c-.043-.058-.09-.115-.139-.17a2.005,2.005,0,0,0-.179-.178c-.055-.049-.111-.1-.17-.14a1.924,1.924,0,0,0-.905-.336,4.713,4.713,0,0,0-2.53.5c-.014-.043-.034-.076-.049-.117a5.059,5.059,0,0,0-1.2.88A4.71,4.71,0,0,0,45.034,18Z" style="fill:#ffa1c8"/><path d="M42.4,56.3A12.413,12.413,0,0,1,33,61h0a12.171,12.171,0,0,1-8.738-3.956,4.341,4.341,0,0,0,.624,4.114A18.868,18.868,0,0,0,32.99,63h.019a18.879,18.879,0,0,0,9.56-2.606A4.363,4.363,0,0,0,42.4,56.3Z" style="fill:#58d14e"/><path d="M49.5,37A2.5,2.5,0,0,0,47,39.5v7a2.495,2.495,0,0,0,4.613,1.323A18.95,18.95,0,0,0,52,44V39.5A2.5,2.5,0,0,0,49.5,37Z" style="fill:#82ff78"/><path d="M16.5,49A2.5,2.5,0,0,0,19,46.5v-7a2.5,2.5,0,0,0-5,0v4.513a19.032,19.032,0,0,0,.385,3.807A2.492,2.492,0,0,0,16.5,49Z" style="fill:#82ff78"/><ellipse cx="42.684" cy="37.695" rx="1.642" ry="2.286" transform="translate(-14.151 41.242) rotate(-45.02)" style="fill:#f6fafd"/><ellipse cx="42.682" cy="41.708" rx="0.825" ry="1.148" transform="translate(-16.991 42.417) rotate(-45.02)" style="fill:#f6fafd"/><rect x="13" y="38" width="2" height="2"/><path d="M33,62A18.021,18.021,0,0,1,15,44V42H13v2a20,20,0,0,0,39.3,5.263l-1.93-.526A18.031,18.031,0,0,1,33,62Z"/><path d="M45,17a4,4,0,1,0,4,4A4,4,0,0,0,45,17Zm0,6a2,2,0,1,1,2-2A2,2,0,0,1,45,23Z"/><path d="M58.618,3.66l-.61-1.221C58,2.431,58,2.425,57.991,2.416a.974.974,0,0,0-.168-.232l-.007-.008a1,1,0,0,0-.23-.165c-.009-.005-.016-.014-.025-.019l-1.221-.61a13,13,0,0,0-10-.71l-1.661.554a1,1,0,0,0-.391,1.655L50,8.587l-3.11,3.11c-.009-.008-.016-.018-.025-.025a2.911,2.911,0,0,0-3.728,0A5.5,5.5,0,0,0,41.81,13.3a5.508,5.508,0,0,0-2.088-.212,2.914,2.914,0,0,0-2.131,1.248l-2.346-.854A7.032,7.032,0,0,0,27.537,15.5l-2.779,3.243L18.78,7.683a.9.9,0,0,0-.091-.139A3.971,3.971,0,0,0,15.533,6H5A1,1,0,0,0,4,7v4a1,1,0,0,0,1,1h9.489l5.9,12h-.165A2.989,2.989,0,0,0,17.7,25.38l-4.545,7.08A1,1,0,0,0,13,33v3h2V34.477l3.629,1.452a1,1,0,0,0,.765-.01L26,33.088l6.606,2.831a1.007,1.007,0,0,0,.788,0L40,33.088l6.606,2.831a1,1,0,0,0,.765.01L51,34.477V44a18.157,18.157,0,0,1-.223,2.842l1.975.314A20.082,20.082,0,0,0,53,44V33a1,1,0,0,0-.158-.54l-2.306-3.592a2.909,2.909,0,0,0,2.379-2.591A5.523,5.523,0,0,0,52.7,24.19a5.463,5.463,0,0,0,1.625-1.326,2.912,2.912,0,0,0,0-3.728A5.5,5.5,0,0,0,52.7,17.81a5.526,5.526,0,0,0,.212-2.088,2.916,2.916,0,0,0-2.638-2.637,5.549,5.549,0,0,0-2.087.212c-.008-.016-.02-.028-.029-.044L51.413,10l5.706,5.706a1,1,0,0,0,.707.293,1.067,1.067,0,0,0,.23-.026,1,1,0,0,0,.718-.658l.555-1.661A13.01,13.01,0,0,0,58.618,3.66ZM26.681,19.575,29.057,16.8a5.026,5.026,0,0,1,5.5-1.446l2.526.919A5.567,5.567,0,0,0,37.3,17.81a5.463,5.463,0,0,0-1.625,1.326,2.912,2.912,0,0,0,0,3.728A5.485,5.485,0,0,0,37.012,24H27.6l-1.316-2.436,6.156,2.369.719-1.868Zm-8.5-8.786-1.656.828L16.2,10.94c-.007-.015-.019-.028-.027-.043l1-1.994ZM14.382,10H14V8h1.382ZM6,8h6v2H6Zm11.413,5.412,1.724-.862L25.323,24h-2.7Zm29.6,20.506-6.62-2.837a1.007,1.007,0,0,0-.788,0L33,33.912l-6.606-2.831a1.007,1.007,0,0,0-.788,0l-6.62,2.837-3.491-1.4,3.892-6.061a.994.994,0,0,1,.841-.46H37.086c0,.093-.009.185,0,.278a2.916,2.916,0,0,0,2.638,2.637A5.525,5.525,0,0,0,41.81,28.7a5.463,5.463,0,0,0,1.326,1.625,2.913,2.913,0,0,0,3.728,0,5.521,5.521,0,0,0,1.257-1.521l2.384,3.713ZM50.1,15.077a.926.926,0,0,1,.828.827,3.7,3.7,0,0,1-.4,1.993,1,1,0,0,0,.576,1.39,3.685,3.685,0,0,1,1.689,1.128h0a.926.926,0,0,1,0,1.17A3.685,3.685,0,0,1,51.1,22.713a1,1,0,0,0-.576,1.39,3.7,3.7,0,0,1,.4,1.992.926.926,0,0,1-.827.828,3.669,3.669,0,0,1-1.993-.4,1,1,0,0,0-1.39.576,3.693,3.693,0,0,1-1.128,1.69.925.925,0,0,1-1.17,0A3.685,3.685,0,0,1,43.287,27.1a1,1,0,0,0-1.39-.576,3.665,3.665,0,0,1-1.992.4.926.926,0,0,1-.828-.827,3.7,3.7,0,0,1,.4-1.993,1,1,0,0,0-.576-1.39,3.693,3.693,0,0,1-1.69-1.128.926.926,0,0,1,0-1.17A3.685,3.685,0,0,1,38.9,19.287a1,1,0,0,0,.576-1.39,3.7,3.7,0,0,1-.4-1.992.926.926,0,0,1,.827-.828,3.721,3.721,0,0,1,1.993.4,1,1,0,0,0,1.39-.576,3.693,3.693,0,0,1,1.128-1.69.925.925,0,0,1,1.17,0A3.685,3.685,0,0,1,46.713,14.9a1,1,0,0,0,1.39.576A3.7,3.7,0,0,1,50.1,15.077Zm-.262-9.484,4.108-.948L51.413,7.173Zm5.522.466-.948,4.108-1.58-1.58Zm-8.377-3.49a10.984,10.984,0,0,1,7.014.012L48.166,3.925,46.852,2.611ZM57.432,13.022l-.043.126-1.314-1.314,1.344-5.826A11.011,11.011,0,0,1,57.432,13.022Z"/></g></svg>