<svg xmlns="http://www.w3.org/2000/svg" viewBox="0 0 64 64"><title>16-tom yum goong</title><g id="_16-tom_yum_goong" data-name="16-tom yum goong"><circle cx="32" cy="32" r="26" style="fill:#ff802c"/><path d="M32,1A31,31,0,1,1,1,32,31,31,0,0,1,32,1ZM58,32A26,26,0,1,0,32,58,26,26,0,0,0,58,32Z" style="fill:#f7faff"/><path d="M10.14,38.04a1.668,1.668,0,0,1-.013-1.286A1.731,1.731,0,0,0,9.14,39.04c2.68,6.54,6.75,9.76,9.75,8.79A3.127,3.127,0,0,0,20.872,46.4a4.766,4.766,0,0,1-.982.433C16.89,47.8,12.82,44.58,10.14,38.04Z" style="fill:#e65800"/><path d="M35.089,43.272A1.543,1.543,0,0,1,36.5,42.011L36.51,42H35l-1.976-.941c-.009.093-.024.185-.024.281a2.249,2.249,0,0,0-.033-.308l-.3-.142a2.989,2.989,0,0,1-1.645-2.178,4.317,4.317,0,0,0-.865-.282L28,38v2.39a2.906,2.906,0,0,0,1.67,2.5L32,44h2Z" style="fill:#e65800"/><path d="M47.09,41.24A22.176,22.176,0,0,0,46.96,37,34.984,34.984,0,0,0,46,32l.01-.1A4.976,4.976,0,0,1,42,27a14.188,14.188,0,0,0-3.12-8.9,4.006,4.006,0,0,1-.666-1.221L35,16v1.6a3.989,3.989,0,0,0,.88,2.5A14.188,14.188,0,0,1,39,29a4.976,4.976,0,0,0,4.01,4.9L43,34a34.984,34.984,0,0,1,.96,5,22.176,22.176,0,0,1,.13,4.24,8.632,8.632,0,0,1-1.062,3.754,4.153,4.153,0,0,0,1.932-.784C46.33,45.18,46.92,43.3,47.09,41.24Z" style="fill:#e65800"/><path d="M36.9,49.07a8.686,8.686,0,0,1-1.143-2.2,4.943,4.943,0,0,1-.647-1.676A1.515,1.515,0,0,0,33.61,44a1.537,1.537,0,0,0-1.54,1.65,10.632,10.632,0,0,0,1.83,5.42A7.233,7.233,0,0,0,40,54a14.12,14.12,0,0,0,5.69-1.07,9.935,9.935,0,0,0,2.956-1.984A14.138,14.138,0,0,1,43,52,7.233,7.233,0,0,1,36.9,49.07Z" style="fill:#e65800"/><polygon points="35 8 38.394 14.108 40.798 14.765 35 8" style="fill:#e66718"/><path d="M26,24a7.953,7.953,0,0,1-2.013-.266c0,.089.013.176.013.266A8,8,0,0,1,8.138,25.449a8,8,0,1,0,15.545,2.639c0-.089-.011-.176-.014-.265a7.973,7.973,0,0,0,9.876-9.184A8,8,0,0,1,26,24Z" style="fill:#e65800"/><path d="M36,39.34V42H35l-2.33-1.11A2.906,2.906,0,0,1,31,38.39V36l2.16.43A3.224,3.224,0,0,1,36,39.34Z" style="fill:#f4700c"/><path d="M38.66,40.89,37,42H36V39.34a3.014,3.014,0,0,1,2.27-2.91L40,36v2.39A2.993,2.993,0,0,1,38.66,40.89Z" style="fill:#f4700c"/><path d="M36,41.34v-2a3.224,3.224,0,0,0-2.84-2.91L31,36v2l2.16.43A3.224,3.224,0,0,1,36,41.34Z" style="fill:#ffb844"/><path d="M38.27,36.43A3.014,3.014,0,0,0,36,39.34v2a3.014,3.014,0,0,1,2.27-2.91L40,38V36Z" style="fill:#ffb844"/><path d="M48.49,18.24a11.744,11.744,0,0,1,2.84,3.89L54,28l-5,4H47a4.619,4.619,0,0,1-.99-.1A4.976,4.976,0,0,1,42,27a14.188,14.188,0,0,0-3.12-8.9A3.989,3.989,0,0,1,38,15.6V14l5.56,1.52A11.945,11.945,0,0,1,48.49,18.24Z" style="fill:#ff942c"/><path d="M51.562,27.751A5.706,5.706,0,0,1,48,29a4.619,4.619,0,0,1-.99-.1A4.976,4.976,0,0,1,43,24a14.185,14.185,0,0,0-3.11-8.887,4.162,4.162,0,0,1-.45-.719L38,14v1.6a3.989,3.989,0,0,0,.88,2.5A14.188,14.188,0,0,1,42,27a4.976,4.976,0,0,0,4.01,4.9A4.619,4.619,0,0,0,47,32h2l5-4-.734-1.613Z" style="fill:#ff7326"/><path d="M39.89,15.113c.219.274.423.558.62.846l2.05.561a11.945,11.945,0,0,1,4.93,2.72,11.744,11.744,0,0,1,2.84,3.89l1.87,4.11,1.066-.853L54,28l-2.67-5.87a11.744,11.744,0,0,0-2.84-3.89,11.945,11.945,0,0,0-4.93-2.72L38,14l1.44.394A4.162,4.162,0,0,0,39.89,15.113Z" style="fill:#ffce54"/><path d="M44.96,46.21c-.12.8-.27,3.77,3.73,4.72A14.12,14.12,0,0,1,43,52a7.233,7.233,0,0,1-6.1-2.93L37,49a2.853,2.853,0,0,1,2.78-2.98A5.126,5.126,0,0,0,43,47,4.167,4.167,0,0,0,44.96,46.21Z" style="fill:#eef2fa"/><path d="M55,37v3a14,14,0,0,1-1.26,5.99,6.664,6.664,0,0,1-6.65-4.75A22.176,22.176,0,0,0,46.96,37H47c1,2,2,2,4,2,2.16,0,3.91-1.28,3.99-2.88C55,36.41,55,36.7,55,37Z" style="fill:#eef2fa"/><path d="M38.11,43.19a4.59,4.59,0,0,0,1.67,2.83A2.853,2.853,0,0,0,37,49l-.1.07a10.632,10.632,0,0,1-1.83-5.42A1.537,1.537,0,0,1,36.61,42,1.515,1.515,0,0,1,38.11,43.19Z" style="fill:#ffab7d"/><path d="M53.74,45.99a9.86,9.86,0,0,1-5.05,4.94c-4-.95-3.85-3.92-3.73-4.72,1.37-1.03,1.96-2.91,2.13-4.97A6.664,6.664,0,0,0,53.74,45.99Z" style="fill:#ffab7d"/><path d="M46,32l.01-.1A4.619,4.619,0,0,0,47,32h2l5-4a39.721,39.721,0,0,1,.99,8.12C54.91,37.72,53.16,39,51,39c-2,0-3,0-4-2h-.04A34.984,34.984,0,0,0,46,32Z" style="fill:#ffab7d"/><circle cx="26" cy="16" r="1" style="fill:#daffa8"/><circle cx="16" cy="24" r="1" style="fill:#daffa8"/><path d="M34,16a8,8,0,0,1-8,8,8.383,8.383,0,0,1-2.01-.25,7.769,7.769,0,0,0-1.43-4.31,7.926,7.926,0,0,0-4.61-3.2L18,16a8,8,0,0,1,16,0Zm-8,1a1,1,0,1,0-1-1A1,1,0,0,0,26,17Z" style="fill:#bdf474"/><path d="M16,25a1,1,0,1,0-1-1A1,1,0,0,0,16,25Zm7.99-1.25A2.09,2.09,0,0,1,24,24a8,8,0,1,1-8-8,7.832,7.832,0,0,1,1.95.24,7.926,7.926,0,0,1,4.61,3.2A7.769,7.769,0,0,1,23.99,23.75Z" style="fill:#bdf474"/><path d="M38,6,48.49,18.24a11.945,11.945,0,0,0-4.93-2.72l-.32-.09Z" style="fill:#ffce54"/><path d="M26,17a1,1,0,1,0-1-1A1,1,0,0,0,26,17Zm7.99-1.25A2.09,2.09,0,0,1,34,16a8,8,0,1,1-8-8,7.832,7.832,0,0,1,1.95.24,7.926,7.926,0,0,1,4.61,3.2A7.769,7.769,0,0,1,33.99,15.75Z" style="fill:#fffeed"/><path d="M33.99,15.75a7.769,7.769,0,0,0-1.43-4.31,7.926,7.926,0,0,0-4.61-3.2A7.832,7.832,0,0,0,26,8a8,8,0,1,0,8,8A2.09,2.09,0,0,0,33.99,15.75ZM26,23a7,7,0,1,1,7-7A7,7,0,0,1,26,23Z" style="fill:#aaf66f"/><path d="M25.294,16.706l-3.476,3.476a.993.993,0,0,0,.094,1.5,6.946,6.946,0,0,0,2.952,1.225,1,1,0,0,0,1.136-1V17A.993.993,0,0,1,25.294,16.706Z" style="fill:#e0ff79"/><path d="M26,17v4.913a1,1,0,0,0,1.136,1,6.946,6.946,0,0,0,2.952-1.225.993.993,0,0,0,.094-1.5l-3.476-3.476A.993.993,0,0,1,26,17Z" style="fill:#e0ff79"/><path d="M32.908,17.136a1,1,0,0,0-1-1.136H27a1,1,0,0,1-.294.706l3.476,3.476a.993.993,0,0,0,1.5-.094A6.946,6.946,0,0,0,32.908,17.136Z" style="fill:#e0ff79"/><path d="M25,16H20.087a1,1,0,0,0-1,1.136,6.946,6.946,0,0,0,1.225,2.952.993.993,0,0,0,1.5.094l3.476-3.476A1,1,0,0,1,25,16Z" style="fill:#e0ff79"/><path d="M26.706,15.294l3.476-3.476a.993.993,0,0,0-.094-1.5,6.946,6.946,0,0,0-2.952-1.225A1,1,0,0,0,26,10.087V15A1,1,0,0,1,26.706,15.294Z" style="fill:#e0ff79"/><path d="M25.294,15.294l-3.476-3.476a.993.993,0,0,0-1.5.094,6.946,6.946,0,0,0-1.225,2.952,1,1,0,0,0,1,1.136H25A.993.993,0,0,1,25.294,15.294Z" style="fill:#e0ff79"/><path d="M27,16h4.913a1,1,0,0,0,1-1.136,6.946,6.946,0,0,0-1.225-2.952.993.993,0,0,0-1.5-.094l-3.476,3.476A.993.993,0,0,1,27,16Z" style="fill:#e0ff79"/><path d="M26,15V10.087a1,1,0,0,0-1.136-.995,6.946,6.946,0,0,0-2.952,1.225.993.993,0,0,0-.094,1.5l3.476,3.476A1,1,0,0,1,26,15Z" style="fill:#e0ff79"/><path d="M25,16.375a.35.35,0,0,0,.073-.015.924.924,0,0,1,0-.72A.35.35,0,0,0,25,15.625H19.308a1.008,1.008,0,0,0,.779.375,1.008,1.008,0,0,0-.779.375Z" style="fill:#fffdd9"/><path d="M25.1,16.413c-.021.014-.048.009-.067.027L21,20.468a1.01,1.01,0,0,0,.817-.286,1.01,1.01,0,0,0-.286.817l4.028-4.027c.018-.019.013-.046.027-.068a.937.937,0,0,1-.492-.491Z" style="fill:#fffdd9"/><path d="M26,17a.98.98,0,0,1-.36-.073.35.35,0,0,0-.015.073v5.692A1.008,1.008,0,0,0,26,21.913a1.008,1.008,0,0,0,.375.779V17a.35.35,0,0,0-.015-.073A.98.98,0,0,1,26,17Z" style="fill:#fffdd9"/><ellipse cx="23.121" cy="20.75" rx="0.574" ry="0.413" transform="translate(-7.901 22.416) rotate(-44.98)" style="fill:#fffcbd"/><ellipse cx="27.121" cy="20.75" rx="0.413" ry="0.574" style="fill:#fffcbd"/><ellipse cx="24.121" cy="19.75" rx="0.413" ry="0.574" style="fill:#fffcbd"/><ellipse cx="22.121" cy="17.75" rx="0.574" ry="0.413" style="fill:#fffcbd"/><ellipse cx="24.121" cy="21.75" rx="0.413" ry="0.574" style="fill:#fffcbd"/><ellipse cx="21.121" cy="14.75" rx="0.574" ry="0.413" style="fill:#fffcbd"/><ellipse cx="20.121" cy="17.75" rx="0.574" ry="0.413" style="fill:#fffcbd"/><path d="M43,49a5.063,5.063,0,0,0,2.269-.513,4.165,4.165,0,0,1-.309-2.277A4.167,4.167,0,0,1,43,47a5.126,5.126,0,0,1-3.22-.98,3.443,3.443,0,0,0-1.832.735A6.165,6.165,0,0,0,43,49Z" style="fill:#ffab7d"/><path d="M49.2,38.906A2.905,2.905,0,0,1,47,37h-.04a22.176,22.176,0,0,1,.13,4.24,7.794,7.794,0,0,0,1.455,2.537A21.673,21.673,0,0,0,49.2,38.906Z" style="fill:#ffab7d"/><path d="M39.78,46.02a4.59,4.59,0,0,1-1.67-2.83A1.518,1.518,0,0,0,36.091,42.1a9.48,9.48,0,0,0,1.857,4.657A3.443,3.443,0,0,1,39.78,46.02Z" style="fill:#ff8847"/><path d="M45.269,48.487c1.715-.841,2.714-2.642,3.276-4.71A7.794,7.794,0,0,1,47.09,41.24c-.17,2.06-.76,3.94-2.13,4.97A4.165,4.165,0,0,0,45.269,48.487Z" style="fill:#ff8847"/><path d="M49.2,38.906c.011-.367.019-.727.018-1.071a5.974,5.974,0,0,1,3.635-5.488l1.786-.765A34.212,34.212,0,0,0,54,28l-5,4H47a4.619,4.619,0,0,1-.99-.1L46,32a34.984,34.984,0,0,1,.96,5H47A2.905,2.905,0,0,0,49.2,38.906Z" style="fill:#ff8847"/><circle cx="16" cy="24" r="1" style="fill:#fffeed"/><path d="M16,25a1,1,0,1,0-1-1A1,1,0,0,0,16,25Zm7.99-1.25A2.09,2.09,0,0,1,24,24a8,8,0,1,1-8-8,7.832,7.832,0,0,1,1.95.24,7.926,7.926,0,0,1,4.61,3.2A7.769,7.769,0,0,1,23.99,23.75Z" style="fill:#fffeed"/><path d="M23.99,23.75a7.769,7.769,0,0,0-1.43-4.31,7.926,7.926,0,0,0-4.61-3.2A7.832,7.832,0,0,0,16,16a8,8,0,1,0,8,8A2.09,2.09,0,0,0,23.99,23.75ZM16,31a7,7,0,1,1,7-7A7,7,0,0,1,16,31Z" style="fill:#aaf66f"/><path d="M15.294,24.706l-3.476,3.476a.993.993,0,0,0,.094,1.5,6.946,6.946,0,0,0,2.952,1.225,1,1,0,0,0,1.136-1V25A.993.993,0,0,1,15.294,24.706Z" style="fill:#e0ff79"/><path d="M16,25v4.913a1,1,0,0,0,1.136,1,6.946,6.946,0,0,0,2.952-1.225.993.993,0,0,0,.094-1.5l-3.476-3.476A.993.993,0,0,1,16,25Z" style="fill:#e0ff79"/><path d="M22.908,25.136a1,1,0,0,0-1-1.136H17a1,1,0,0,1-.294.706l3.476,3.476a.993.993,0,0,0,1.5-.094A6.946,6.946,0,0,0,22.908,25.136Z" style="fill:#e0ff79"/><path d="M15,24H10.087a1,1,0,0,0-.995,1.136,6.946,6.946,0,0,0,1.225,2.952.993.993,0,0,0,1.5.094l3.476-3.476A1,1,0,0,1,15,24Z" style="fill:#e0ff79"/><path d="M16.706,23.294l3.476-3.476a.993.993,0,0,0-.094-1.5,6.946,6.946,0,0,0-2.952-1.225,1,1,0,0,0-1.136,1V23A1,1,0,0,1,16.706,23.294Z" style="fill:#e0ff79"/><path d="M15.294,23.294l-3.476-3.476a.993.993,0,0,0-1.5.094,6.946,6.946,0,0,0-1.225,2.952A1,1,0,0,0,10.087,24H15A.993.993,0,0,1,15.294,23.294Z" style="fill:#e0ff79"/><path d="M17,24h4.913a1,1,0,0,0,1-1.136,6.946,6.946,0,0,0-1.225-2.952.993.993,0,0,0-1.5-.094l-3.476,3.476A.993.993,0,0,1,17,24Z" style="fill:#e0ff79"/><path d="M16,23V18.087a1,1,0,0,0-1.136-1,6.946,6.946,0,0,0-2.952,1.225.993.993,0,0,0-.094,1.5l3.476,3.476A1,1,0,0,1,16,23Z" style="fill:#e0ff79"/><path d="M19,16a7.079,7.079,0,0,1,.094-1.1c0-.013-.005-.025,0-.039.006-.04.019-.079.026-.119.031-.168.069-.332.111-.495.019-.071.032-.145.052-.215a7.9,7.9,0,0,0-1.073.177A7.975,7.975,0,0,0,18,16c0,.09.01.177.013.266a7.951,7.951,0,0,1,1.017.332C19.013,16.4,19,16.2,19,16Z" style="fill:#61db58"/><path d="M27.75,22.77c-.163.043-.327.081-.5.112-.04.007-.079.02-.119.026-.014,0-.026,0-.039,0a6.448,6.448,0,0,1-2.194,0c-.013,0-.025.005-.039,0-.04-.006-.079-.019-.119-.026-.168-.031-.332-.069-.5-.112-.084-.021-.168-.039-.25-.064l-.119-.034a8.057,8.057,0,0,1,.106,1.063,7.791,7.791,0,0,0,3.8.057,7.941,7.941,0,0,0,.178-1.074C27.9,22.738,27.823,22.752,27.75,22.77Z" style="fill:#61db58"/><path d="M25.042,15.792c-.072-.059-.149-.111-.223-.167A7.951,7.951,0,0,0,20,14c-.241,0-.479.013-.715.035-.021.07-.037.143-.056.215-.042.163-.08.327-.111.495-.009.052-.015.105-.024.158A7.079,7.079,0,0,0,19,16c0,.2.013.4.03.6.041.017.083.032.124.05a8.021,8.021,0,0,1,3.184,2.483c.077.1.154.2.227.3s.141.214.209.323a7.948,7.948,0,0,1,1.106,2.906c.04.013.079.03.12.042.082.025.166.043.25.064.163.043.327.081.5.112.052.009.105.015.158.024a6.448,6.448,0,0,0,2.194,0c.053-.009.106-.015.158-.024.168-.031.332-.069.5-.112.073-.018.146-.035.218-.055Q28,22.361,28,22a7.951,7.951,0,0,0-1.625-4.819c-.056-.074-.108-.151-.167-.223m0,0a8.032,8.032,0,0,0-1.166-1.166" style="fill:#c5f039"/><path d="M27.76,50.24c2.06,2.07,5.18,2.33,6.13,1.67-2.59,2.49-6.35,2.8-8.48.68s-1.81-5.89.68-8.48C25.43,45.06,25.69,48.18,27.76,50.24Z" style="fill:#ca2a28"/><path d="M29.89,39.91c-2.59,2.49-6.35,2.8-8.48.68s-1.81-5.89.68-8.48c-.66.95-.4,4.07,1.67,6.13S28.94,40.57,29.89,39.91Z" style="fill:#ca2a28"/><path d="M33.89,51.91c-.95.66-4.07.4-6.13-1.67s-2.33-5.18-1.67-6.13a1.1,1.1,0,0,1,.1-.11L34,51.81A1.1,1.1,0,0,1,33.89,51.91Z" style="fill:#ff7170"/><path d="M22.19,32,30,39.81a1.1,1.1,0,0,1-.11.1c-.95.66-4.07.4-6.13-1.67s-2.33-5.18-1.67-6.13A1.1,1.1,0,0,1,22.19,32Z" style="fill:#ff7170"/><path d="M33.89,51.91c-2.59,2.49-6.35,2.8-8.48.68s-1.81-5.89.68-8.48c-.66.95-.4,4.07,1.67,6.13S32.94,52.57,33.89,51.91Z" style="fill:#ca2a28"/><path d="M26.76,51.24a6.63,6.63,0,0,0,5.415,1.918A7.8,7.8,0,0,0,33.89,51.91c-.95.66-4.07.4-6.13-1.67s-2.33-5.18-1.67-6.13a7.8,7.8,0,0,0-1.248,1.715A6.63,6.63,0,0,0,26.76,51.24Z" style="fill:#e7302e"/><path d="M26.19,44,34,51.81a1.1,1.1,0,0,1-.11.1c-.95.66-4.07.4-6.13-1.67s-2.33-5.18-1.67-6.13A1.1,1.1,0,0,1,26.19,44Z" style="fill:#ff7170"/><path d="M26.782,44.592,26.19,44a1.1,1.1,0,0,0-.1.11c-.66.95-.4,4.07,1.67,6.13s5.18,2.33,6.13,1.67a1.1,1.1,0,0,0,.11-.1l-.592-.592a6.758,6.758,0,0,1-6.626-6.626Z" style="fill:#ff9191"/><ellipse cx="30.121" cy="48.75" rx="0.574" ry="0.413" style="fill:#ffb0b0"/><ellipse cx="29.121" cy="47.75" rx="0.413" ry="0.574" transform="translate(-25.231 34.559) rotate(-44.98)" style="fill:#ffb0b0"/><path d="M15.89,41.15c.96,2.36,4.13,4.64,6.11,4a3.044,3.044,0,0,1-2.11,1.68c-3,.97-7.07-2.25-9.75-8.79a1.778,1.778,0,0,1,1.26-2.4l.98-.32a2.119,2.119,0,0,1,2.7,1.12,4.137,4.137,0,0,1,.09,2.95S15.31,39.73,15.89,41.15Z" style="fill:#f03332"/><path d="M11.14,37.04a1.668,1.668,0,0,1-.013-1.286,1.731,1.731,0,0,0-.987,2.286c2.68,6.54,6.75,9.76,9.75,8.79A3.127,3.127,0,0,0,21.872,45.4a4.766,4.766,0,0,1-.982.433C17.89,46.8,13.82,43.58,11.14,37.04Z" style="fill:#ca2a28"/><path d="M14.767,36.555a.7.7,0,0,0-.157-.165,1.714,1.714,0,0,0-.664-.358.968.968,0,0,0-.747.1.452.452,0,0,0-.147.148.434.434,0,0,0-.051.193,1.014,1.014,0,0,0,.239.67,2.394,2.394,0,0,0,.573.493c.262.172.978.632,1.161.147A2.383,2.383,0,0,0,14.767,36.555Z" style="fill:#ff7170"/><path d="M29.89,39.91c-2.59,2.49-6.35,2.8-8.48.68s-1.81-5.89.68-8.48c-.66.95-.4,4.07,1.67,6.13S28.94,40.57,29.89,39.91Z" style="fill:#ca2a28"/><path d="M22.76,39.24a6.63,6.63,0,0,0,5.415,1.918A7.8,7.8,0,0,0,29.89,39.91c-.95.66-4.07.4-6.13-1.67s-2.33-5.18-1.67-6.13a7.8,7.8,0,0,0-1.248,1.715A6.63,6.63,0,0,0,22.76,39.24Z" style="fill:#e7302e"/><path d="M22.19,32,30,39.81a1.1,1.1,0,0,1-.11.1c-.95.66-4.07.4-6.13-1.67s-2.33-5.18-1.67-6.13A1.1,1.1,0,0,1,22.19,32Z" style="fill:#ff7170"/><path d="M22.782,32.592,22.19,32a1.1,1.1,0,0,0-.1.11c-.66.95-.4,4.07,1.67,6.13s5.18,2.33,6.13,1.67a1.1,1.1,0,0,0,.11-.1l-.592-.592a6.758,6.758,0,0,1-6.626-6.626Z" style="fill:#ff9191"/><ellipse cx="26.121" cy="36.75" rx="0.574" ry="0.413" style="fill:#ffb0b0"/><ellipse cx="25.121" cy="35.75" rx="0.413" ry="0.574" transform="translate(-17.919 28.219) rotate(-44.98)" style="fill:#ffb0b0"/><path d="M34,22c4,0,4,4,4,4C34,26,34,22,34,22Z" style="fill:#58d14e"/><path d="M41,44s0-4,4-4C45,40,45,44,41,44Z" style="fill:#58d14e"/><path d="M19,51s0-4,4-4C23,47,23,51,19,51Z" style="fill:#58d14e"/><path d="M28,28c4,0,4,4,4,4C28,32,28,28,28,28Z" style="fill:#58d14e"/><path d="M32,32s0-4,4-4C36,28,36,32,32,32Z" style="fill:#58d14e"/><path d="M32,4A28,28,0,1,0,60,32,28,28,0,0,0,32,4Zm0,54A26,26,0,1,1,58,32,26,26,0,0,1,32,58Z" style="fill:#dce1eb"/><ellipse cx="52.684" cy="34.695" rx="1.642" ry="2.286" transform="translate(-9.098 47.436) rotate(-45.02)" style="fill:#f6fafd"/><ellipse cx="26.682" cy="31.708" rx="0.825" ry="1.148" transform="translate(-14.607 28.168) rotate(-45.02)" style="fill:#f6fafd"/><ellipse cx="29.682" cy="49.708" rx="0.825" ry="1.148" transform="translate(-26.46 35.566) rotate(-45.02)" style="fill:#f6fafd"/><path d="M32,0A32,32,0,1,0,64,32,32.036,32.036,0,0,0,32,0Zm0,62A30,30,0,1,1,62,32,30.034,30.034,0,0,1,32,62Z"/><path d="M55.99,36a40.464,40.464,0,0,0-1.021-8.247l-.013,0a1.029,1.029,0,0,0-.046-.171l-2.669-5.871a12.979,12.979,0,0,0-3.005-4.143L38.759,5.349a1,1,0,0,0-1.633,1.137l4.085,7.353-2.948-.8A1,1,0,0,0,37,14v1.6a5.024,5.024,0,0,0,1.1,3.123A13.3,13.3,0,0,1,41,27a6.006,6.006,0,0,0,6,6h2a1,1,0,0,0,.625-.219L53.352,29.8a40.99,40.99,0,0,1,.638,6.263C53.939,37.118,52.594,38,51,38c-1.909,0-2.375,0-3.089-1.417-.076-.606-.162-1.2-.261-1.758l-1.968.35a23.4,23.4,0,0,1,.384,6.137l-.014,0,.01.027a7,7,0,0,1-1.056,3.4A3.039,3.039,0,0,1,42.928,46a3.571,3.571,0,0,1-3.836-3,2.379,2.379,0,0,0-.4-.921l.529-.352A3.993,3.993,0,0,0,41,38.4V36a1,1,0,0,0-1.242-.97l-1.728.432A3.986,3.986,0,0,0,35.918,36.8a4.9,4.9,0,0,0-2.563-1.35L31.2,35.02A1,1,0,0,0,30,36v2.392l-7.1-7.1a1,1,0,0,0-1.413,0h0l0,0c-2.969,2.972-3.318,7.455-.778,10a5.973,5.973,0,0,0,4.285,1.7A8.19,8.19,0,0,0,30.7,40.517l.006,0h0l.01-.014a4.506,4.506,0,0,0,1.523,1.3l1.956.931a2.471,2.471,0,0,0-.121,1.011C34.6,49.537,37.933,53,43,53a15.244,15.244,0,0,0,5.761-1.031c.015,0,.027.008.043.011l.006-.029C54,49.826,56,44.792,56,40V37q0-.476-.008-.939c0-.022.008-.043.008-.065ZM27.974,39.194a5.748,5.748,0,0,1-5.17-5.17Zm-5.854.686a4.278,4.278,0,0,1-.966-4.08A7.6,7.6,0,0,0,26.2,40.846,4.276,4.276,0,0,1,22.12,39.88ZM43.678,14.16l.411.48c-.089-.026-.172-.063-.262-.087l-.015,0,.062-.035ZM48.649,31H47a4,4,0,0,1-4-4,15.314,15.314,0,0,0-3.342-9.529A3.008,3.008,0,0,1,39,15.6v-.288l4.3,1.173a10.971,10.971,0,0,1,4.471,2.456l1.468,1.713.045-.038a11.047,11.047,0,0,1,1.135,1.93l2.347,5.162ZM36.725,46.628a11.973,11.973,0,0,1-.658-3.071.494.494,0,0,1,.131-.374.569.569,0,0,1,.931.194A5.862,5.862,0,0,0,38,45.511,3.737,3.737,0,0,0,36.725,46.628Zm1.79-9.227L39,37.28V38.4a2,2,0,0,1-.891,1.664L37,40.8V39.343A2,2,0,0,1,38.515,37.4ZM32,38.4V37.22l.963.192c1.2.24,2.037,1.034,2.037,1.931v1.55l-1.859-.884A1.922,1.922,0,0,1,32,38.4ZM43,51a6.261,6.261,0,0,1-4.987-2.122,1.783,1.783,0,0,1,1.554-1.83A6.307,6.307,0,0,0,43,48a.969.969,0,0,0,.142-.01,5.8,5.8,0,0,0,.876-.208,4.68,4.68,0,0,0,.643,1.683,4.839,4.839,0,0,0,1.212,1.258A15.018,15.018,0,0,1,43,51Zm5.573-1.148a3.767,3.767,0,0,1-2.21-1.437,2.978,2.978,0,0,1-.44-1.706,5.33,5.33,0,0,0,.7-.793,6.856,6.856,0,0,0,.89-1.833,7.321,7.321,0,0,0,4.577,2.725A8.728,8.728,0,0,1,48.573,49.852Zm4.5-4.907a5.6,5.6,0,0,1-4.986-3.917q.045-.7.037-1.414A6.936,6.936,0,0,0,51,40a5.8,5.8,0,0,0,3-.82V40A13.759,13.759,0,0,1,53.073,44.945Z"/><rect x="47.5" y="22.882" width="2" height="2.236" transform="translate(-5.613 24.224) rotate(-26.565)"/><path d="M9.243,36.253a2.681,2.681,0,0,0-.029,2.163c2.44,5.967,6.121,9.594,9.532,9.594a4.659,4.659,0,0,0,1.452-.23,4,4,0,0,0,2.7-2.2,1,1,0,0,0-1.212-1.38c-1.367.448-4.064-1.44-4.876-3.423l-.574-1.4a5.439,5.439,0,0,0-.235-3.312h0a3.12,3.12,0,0,0-3.929-1.691l-.106.034-.728-1.779-1.851.757.74,1.81A2.831,2.831,0,0,0,9.243,36.253Zm3.906-.056a1.03,1.03,0,0,1,1.005.618,3.287,3.287,0,0,1,.114,2.152.993.993,0,0,0-.023.806l.719,1.759A8.539,8.539,0,0,0,19.5,45.9c-2.268.634-5.859-1.961-8.43-8.246a.679.679,0,0,1-.007-.563,1.045,1.045,0,0,1,.646-.506l.989-.319A1.5,1.5,0,0,1,13.149,36.2Z"/><path d="M32,28.877A4.641,4.641,0,0,0,28,27a1,1,0,0,0-1,1,4.821,4.821,0,0,0,5,5,4.821,4.821,0,0,0,5-5,1,1,0,0,0-1-1A4.641,4.641,0,0,0,32,28.877Zm-2.783.316a2.557,2.557,0,0,1,1.566,1.614A2.554,2.554,0,0,1,29.217,29.193Zm4,1.614a2.559,2.559,0,0,1,1.566-1.614A2.559,2.559,0,0,1,33.217,30.807Z"/><path d="M34.707,51.1,26.9,43.293a1,1,0,0,0-1.413,0h0l-.007.009c-2.965,2.972-3.313,7.452-.774,9.993a5.973,5.973,0,0,0,4.285,1.7A8.19,8.19,0,0,0,34.7,52.517l.006,0h0A1,1,0,0,0,34.707,51.1Zm-2.732.1A5.75,5.75,0,0,1,26.8,46.024Zm-5.855.685a4.278,4.278,0,0,1-.966-4.08A7.6,7.6,0,0,0,30.2,52.846,4.275,4.275,0,0,1,26.12,51.88Z"/><path d="M16,33a9.013,9.013,0,0,0,8.951-8.066A9.174,9.174,0,0,0,26,25a9,9,0,1,0-8.951-9.934A9,9,0,1,0,16,33ZM26,9a7,7,0,0,1,0,14,7.116,7.116,0,0,1-1.073-.091,8.928,8.928,0,0,0-1.095-3.327l.754-.754-1.414-1.414-.532.532a8.994,8.994,0,0,0-1-.946H23V15H21v1.522a8.95,8.95,0,0,0-1.976-.988A7,7,0,0,1,26,9ZM16,17a7,7,0,1,1-7,7A7.008,7.008,0,0,1,16,17Z"/><rect x="15" y="19" width="2" height="2"/><rect x="15" y="27" width="2" height="2"/><rect x="19" y="23" width="2" height="2"/><rect x="11" y="23" width="2" height="2"/><circle cx="16" cy="24" r="2"/><rect x="17.828" y="25.828" width="2" height="2" transform="translate(-13.455 21.166) rotate(-44.99)"/><rect x="12.172" y="20.172" width="2" height="2" transform="translate(-11.112 15.511) rotate(-44.99)"/><rect x="12.172" y="25.828" width="2" height="2" transform="translate(-15.113 17.172) rotate(-45)"/><rect x="17.828" y="20.172" width="2" height="2" transform="translate(-9.456 19.515) rotate(-45)"/><rect x="25" y="11" width="2" height="2"/><rect x="25" y="19" width="2" height="2"/><rect x="29" y="15" width="2" height="2"/><circle cx="26" cy="16" r="2"/><rect x="27.828" y="17.828" width="2" height="2" transform="translate(-4.871 25.893) rotate(-44.99)"/><rect x="22.172" y="12.172" width="2" height="2" transform="translate(-2.528 20.238) rotate(-44.99)"/><rect x="27.828" y="12.172" width="2" height="2" transform="translate(-0.87 24.242) rotate(-45)"/><path d="M17.258,11.807l-1.18-1.614a27.225,27.225,0,0,0-3.561,3.114l1.443,1.385A25.245,25.245,0,0,1,17.258,11.807Z"/><path d="M32,57A25.028,25.028,0,0,1,7,32a25.811,25.811,0,0,1,.164-2.886l-1.986-.227A27.478,27.478,0,0,0,5,32,27.006,27.006,0,0,0,46.4,54.847l-1.068-1.692A24.919,24.919,0,0,1,32,57Z"/><path d="M44.46,8.041l-.924,1.773a25.045,25.045,0,0,1,13,26.995l1.963.382A27.043,27.043,0,0,0,44.46,8.041Z"/><path d="M36.152,5.317c-.687-.106-1.385-.186-2.076-.238l-.152,1.994c.639.049,1.287.123,1.924.221Z"/><path d="M32,7V5a27.368,27.368,0,0,0-3.115.178l.228,1.987A25.434,25.434,0,0,1,32,7Z"/></g></svg>